<svg width="32" height="32" viewBox="0 0 48 48" fill="none" xmlns="http://www.w3.org/2000/svg">
  <defs>
    <linearGradient id="g" x1="0%" y1="0%" x2="100%" y2="100%">
      <stop offset="0%" stop-color="#00d4ff"/>
      <stop offset="100%" stop-color="#7c3aed"/>
    </linearGradient>
  </defs>
  <rect x="2" y="2" width="44" height="44" rx="10" stroke="url(#g)" stroke-width="2.5" fill="none"/>
  <rect x="14" y="14" width="20" height="20" rx="3" fill="url(#g)" opacity="0.15"/>
  <rect x="14" y="14" width="20" height="20" rx="3" stroke="url(#g)" stroke-width="1.5" fill="none"/>
  <rect x="19" y="19" width="10" height="10" rx="1.5" fill="url(#g)" opacity="0.4"/>
  <line x1="20" y1="14" x2="20" y2="7" stroke="url(#g)" stroke-width="1.5" stroke-linecap="round"/>
  <line x1="24" y1="14" x2="24" y2="5" stroke="url(#g)" stroke-width="1.5" stroke-linecap="round"/>
  <line x1="28" y1="14" x2="28" y2="7" stroke="url(#g)" stroke-width="1.5" stroke-linecap="round"/>
  <line x1="20" y1="34" x2="20" y2="41" stroke="url(#g)" stroke-width="1.5" stroke-linecap="round"/>
  <line x1="24" y1="34" x2="24" y2="43" stroke="url(#g)" stroke-width="1.5" stroke-linecap="round"/>
  <line x1="28" y1="34" x2="28" y2="41" stroke="url(#g)" stroke-width="1.5" stroke-linecap="round"/>
  <line x1="14" y1="20" x2="7" y2="20" stroke="url(#g)" stroke-width="1.5" stroke-linecap="round"/>
  <line x1="14" y1="24" x2="5" y2="24" stroke="url(#g)" stroke-width="1.5" stroke-linecap="round"/>
  <line x1="14" y1="28" x2="7" y2="28" stroke="url(#g)" stroke-width="1.5" stroke-linecap="round"/>
  <line x1="34" y1="20" x2="41" y2="20" stroke="url(#g)" stroke-width="1.5" stroke-linecap="round"/>
  <line x1="34" y1="24" x2="43" y2="24" stroke="url(#g)" stroke-width="1.5" stroke-linecap="round"/>
  <line x1="34" y1="28" x2="41" y2="28" stroke="url(#g)" stroke-width="1.5" stroke-linecap="round"/>
</svg>
